<?xml version="1.0" encoding="UTF-8"?>
<svg id="Ebene_1" data-name="Ebene 1" xmlns="http://www.w3.org/2000/svg" viewBox="0 0 420 124.78">
  <defs>
    <style>
      .cls-1 {
        stroke-width: 0px;
      }
    </style>
  </defs>
  <g>
    <path class="cls-1" d="m8.14,122.69c-2.54-1.4-4.53-3.33-5.97-5.81-1.44-2.48-2.17-5.25-2.17-8.32s.72-5.84,2.17-8.32c1.44-2.48,3.44-4.42,6-5.81,2.55-1.4,5.41-2.1,8.57-2.1,2.37,0,4.56.39,6.57,1.19,2.01.79,3.71,1.95,5.11,3.46l-2.14,2.14c-2.49-2.52-5.64-3.78-9.44-3.78-2.52,0-4.82.58-6.88,1.73-2.07,1.15-3.69,2.74-4.86,4.74-1.17,2-1.75,4.25-1.75,6.75s.58,4.74,1.75,6.75c1.17,2,2.79,3.59,4.86,4.74,2.07,1.15,4.36,1.73,6.88,1.73,3.83,0,6.98-1.28,9.44-3.83l2.14,2.14c-1.4,1.52-3.11,2.68-5.13,3.49-2.02.81-4.22,1.21-6.59,1.21-3.16,0-6.01-.7-8.55-2.1Z"/>
    <path class="cls-1" d="m53.45,122.66c-2.57-1.41-4.57-3.35-6.02-5.81-1.44-2.46-2.17-5.23-2.17-8.3s.72-5.84,2.17-8.3c1.44-2.46,3.45-4.4,6.02-5.81,2.57-1.41,5.43-2.12,8.59-2.12s6.01.7,8.55,2.1c2.54,1.4,4.54,3.34,5.99,5.81s2.19,5.25,2.19,8.32-.73,5.84-2.19,8.32-3.46,4.42-5.99,5.81c-2.54,1.4-5.39,2.1-8.55,2.1s-6.03-.71-8.59-2.12Zm15.43-2.6c2.04-1.14,3.63-2.72,4.79-4.74,1.15-2.02,1.73-4.28,1.73-6.77s-.58-4.75-1.73-6.77c-1.16-2.02-2.75-3.6-4.79-4.74-2.04-1.14-4.32-1.71-6.84-1.71s-4.81.57-6.86,1.71-3.66,2.72-4.83,4.74c-1.17,2.02-1.75,4.28-1.75,6.77s.58,4.75,1.75,6.77,2.78,3.6,4.83,4.74,4.34,1.71,6.86,1.71,4.8-.57,6.84-1.71Z"/>
    <path class="cls-1" d="m126.19,92.6v31.91h-2.78l-20.52-25.9v25.9h-3.37v-31.91h2.78l20.56,25.9v-25.9h3.33Z"/>
    <path class="cls-1" d="m151.75,123.65c-2.17-.76-3.85-1.76-5.04-3.01l1.32-2.6c1.16,1.16,2.69,2.09,4.61,2.8,1.91.72,3.89,1.07,5.93,1.07,2.86,0,5-.52,6.43-1.57,1.43-1.05,2.14-2.41,2.14-4.08,0-1.28-.39-2.29-1.16-3.05-.77-.76-1.73-1.35-2.85-1.76-1.12-.41-2.69-.86-4.7-1.34-2.4-.61-4.32-1.19-5.74-1.76s-2.65-1.42-3.67-2.58c-1.02-1.15-1.53-2.72-1.53-4.7,0-1.61.43-3.08,1.28-4.4s2.16-2.38,3.92-3.17c1.76-.79,3.95-1.19,6.57-1.19,1.82,0,3.61.25,5.36.75,1.75.5,3.26,1.19,4.54,2.07l-1.14,2.69c-1.34-.88-2.77-1.54-4.29-1.98-1.52-.44-3.01-.66-4.47-.66-2.8,0-4.9.54-6.31,1.62-1.41,1.08-2.12,2.47-2.12,4.17,0,1.28.39,2.3,1.16,3.08.77.78,1.75,1.37,2.92,1.78,1.17.41,2.74.86,4.72,1.35,2.34.58,4.23,1.15,5.68,1.71s2.67,1.41,3.67,2.55c1,1.14,1.5,2.68,1.5,4.63,0,1.61-.43,3.08-1.3,4.4-.87,1.32-2.2,2.37-3.99,3.14-1.79.77-4,1.16-6.61,1.16-2.37,0-4.64-.38-6.82-1.14Z"/>
    <path class="cls-1" d="m194.17,121.23c-2.31-2.37-3.46-5.82-3.46-10.35v-18.28h3.37v18.15c0,3.71.84,6.47,2.51,8.3,1.67,1.82,4.09,2.74,7.25,2.74s5.62-.91,7.29-2.74c1.67-1.82,2.51-4.59,2.51-8.3v-18.15h3.28v18.28c0,4.53-1.15,7.98-3.44,10.35-2.3,2.37-5.51,3.56-9.64,3.56s-7.36-1.19-9.66-3.56Z"/>
    <path class="cls-1" d="m240.26,92.6h3.37v29h17.87v2.92h-21.25v-31.91Z"/>
    <path class="cls-1" d="m283.52,95.51h-11.22v-2.92h25.8v2.92h-11.22v29h-3.37v-29Z"/>
    <path class="cls-1" d="m316.67,92.6h3.37v31.91h-3.37v-31.91Z"/>
    <path class="cls-1" d="m370.28,92.6v31.91h-2.78l-20.52-25.9v25.9h-3.37v-31.91h2.78l20.56,25.9v-25.9h3.33Z"/>
    <path class="cls-1" d="m416.33,108.55h3.24v12.17c-1.49,1.31-3.25,2.31-5.29,3.01-2.04.7-4.18,1.05-6.43,1.05-3.19,0-6.06-.7-8.62-2.1-2.55-1.4-4.56-3.33-6.02-5.81s-2.19-5.25-2.19-8.32.73-5.84,2.19-8.32,3.47-4.42,6.02-5.81,5.44-2.1,8.66-2.1c2.43,0,4.66.39,6.7,1.16,2.04.78,3.75,1.92,5.15,3.44l-2.1,2.14c-2.52-2.49-5.73-3.74-9.62-3.74-2.58,0-4.92.57-7,1.71s-3.71,2.72-4.9,4.74c-1.19,2.02-1.78,4.28-1.78,6.77s.59,4.74,1.78,6.75c1.19,2,2.81,3.59,4.88,4.74s4.39,1.73,6.98,1.73c3.28,0,6.06-.82,8.34-2.46v-10.76Z"/>
  </g>
  <g>
    <path class="cls-1" d="m46.58,0v11.4H12.57L1.26,0h45.33ZM12.57,33.93h34.02v11.48H12.57v22.62H1.26v-34.1h11.31Z"/>
    <path class="cls-1" d="m95.91,43.63l13.95,24.41h-13.01l-19.73-34.1,10.12.08c3.06,0,5.7-1.1,7.91-3.32,2.3-2.21,3.4-4.93,3.4-8.08s-1.11-5.7-3.4-7.91c-2.21-2.21-4.85-3.32-7.91-3.32h-22.71l-1.28-1.28L57.38,0h29.85c6.21,0,11.57,2.21,15.99,6.63,4.42,4.51,6.63,9.78,6.63,15.99,0,4.76-1.28,9.02-4,12.84-2.64,3.83-5.95,6.55-9.95,8.16Z"/>
    <path class="cls-1" d="m142.29,56.64l-5.78,11.4h-12.59L157.94,0l22.71,45.41h-12.76l-9.95-19.98-10.03,19.98-5.61,11.23Zm49.66,11.4h-12.67l-5.61-11.31h12.59l5.7,11.31Z"/>
    <path class="cls-1" d="m252.13,0v68.03l-56.55-50.86V0l45.24,40.73V0h11.31Z"/>
    <path class="cls-1" d="m287.93,58c-3.06-3.15-5.53-6.72-7.31-10.89s-2.72-8.5-2.72-13.1.94-9.1,2.72-13.27c1.79-4.08,4.25-7.65,7.31-10.72,3.15-3.15,6.72-5.53,10.89-7.31,4.08-1.79,8.5-2.72,13.18-2.72s9.1.85,13.18,2.64c4.08,1.79,7.74,4.25,10.89,7.4l-8.08,7.91c-4.51-4.42-9.87-6.55-15.99-6.55-3.15,0-6.12.59-8.84,1.7-2.81,1.19-5.19,2.81-7.23,4.93-2.04,2.04-3.66,4.42-4.85,7.14-1.19,2.81-1.79,5.7-1.79,8.84s.6,6.04,1.79,8.84c1.19,2.72,2.81,5.1,4.93,7.14,2.04,2.13,4.42,3.74,7.14,4.93,2.81,1.1,5.7,1.7,8.84,1.7l13.18,8.76c-4.08,1.79-8.5,2.64-13.18,2.64s-9.1-.94-13.18-2.72c-4.17-1.79-7.74-4.25-10.89-7.31Z"/>
    <path class="cls-1" d="m409.88,10.03c6.72,6.63,10.12,14.63,10.12,23.98s-3.4,17.43-10.12,23.98c-6.63,6.63-14.54,10.04-23.98,10.04s-17.35-3.4-23.98-10.04c-6.63-6.63-10.04-14.54-10.04-23.98s3.4-17.35,10.04-23.98c6.55-6.63,14.54-10.03,23.98-10.03s17.35,3.4,23.98,10.03Zm-40.05,7.99c-4.42,4.42-6.55,9.78-6.55,15.99s2.13,11.65,6.55,16.07c4.42,4.42,9.86,6.55,16.07,6.55s11.57-2.13,15.99-6.55,6.63-9.87,6.63-16.07-2.21-11.56-6.63-15.99-9.78-6.63-15.99-6.63-11.56,2.13-16.07,6.63Z"/>
  </g>
</svg>